#!OML:ASF I:\Actors\actors\Patient Classification 2\Patient 1\Session 1\actor1.ASF
:FULLY-SPECIFIED
:DEGREES
863
root -1.06055 18.1581 6.01616 -0.363719 1.55425 -4.93777
lowerback 3.96687 1.25059 2.34248
upperback 1.9362 1.7636 2.4056
thorax -0.240569 0.886366 1.08223
lowerneck -8.8803 2.12841 -0.243677
upperneck 36.6565 5.91879 -6.91379
head 14.2852 1.6895 -1.91757
rclavicle 6.70898e-016 1.70955e-014
rhumerus -45.1319 27.1605 -93.005
rradius 107.57
rwrist -25.4648
rhand -9.93657 -51.3009
rfingers 7.12502
rthumb 16.0447 -440.657
lclavicle 6.70898e-016 1.70955e-014
lhumerus -38.1352 -34.0513 90.7189
lradius 101.976
lwrist 25.8338
lhand -21.2112 -47.2827
lfingers 7.12502
lthumb 5.17045 -17.3657
rfemur 0 0 0
rtibia 0
rfoot 0 0
rtoes 0
lfemur 18.7322 -6.57685 -11.7527
ltibia -19.9369
lfoot -1.74514 19.2505
ltoes -13.9989
864
root -1.05212 18.158 6.03493 -0.200581 1.18334 -4.95061
lowerback 4.39343 1.218 2.83328
upperback 1.59193 1.76731 2.24715
thorax -0.812023 0.884195 0.629793
lowerneck -8.62096 1.97779 -0.189069
upperneck 36.7716 5.49021 -6.42572
head 14.2339 1.57342 -1.7945
rclavicle -8.07563e-016 -2.46493e-014
rhumerus -47.744 25.6447 -94.231
rradius 107.434
rwrist -24.9459
rhand -9.8805 -50.4563
rfingers 7.12502
rthumb 16.0987 -439.808
lclavicle -8.07563e-016 -2.46493e-014
lhumerus -43.6931 -34.4928 91.8939
lradius 103.103
lwrist 24.262
lhand -21.6756 -49.2599
lfingers 7.12502
lthumb 4.72206 -19.3325
rfemur 0 0 0
rtibia 0
rfoot 0 0
rtoes 0
lfemur 18.6641 -6.48088 -11.7755
ltibia -19.8155
lfoot -1.97951 19.4852
ltoes -13.7111
865
root -1.0463 18.1579 6.05384 -0.0609905 0.855559 -4.93
lowerback 4.55651 1.12869 3.10886
upperback 1.41983 1.67275 2.16532
thorax -1.07025 0.833429 0.390518
lowerneck -8.50463 1.85702 -0.262276
upperneck 36.7887 5.12852 -5.93305
head 14.173 1.46722 -1.63316
rclavicle -1.18277e-014 -3.37934e-015
rhumerus -49.9303 24.2616 -95.0739
rradius 107.17
rwrist -24.472
rhand -9.81313 -49.8655
rfingers 7.12502
rthumb 16.1636 -439.212
lclavicle -1.18277e-014 -3.37934e-015
lhumerus -49.2989 -34.3829 93.3088
lradius 104.063
lwrist 23.0383
lhand -22.041 -50.9426
lfingers 7.12502
lthumb 4.3692 -21.0077
rfemur 0 0 0
rtibia 0
rfoot 0 0
rtoes 0
lfemur 18.6146 -6.50232 -11.8447
ltibia -19.679
lfoot -2.33751 19.7781
ltoes -13.0947
866
root -1.04429 18.1569 6.0745 0.0643073 0.432004 -4.78112
lowerback 4.60188 1.04788 3.087
upperback 1.35172 1.56757 2.09723
thorax -1.1659 0.779341 0.336519
lowerneck -8.51841 1.75404 -0.283279
upperneck 36.7126 4.83449 -5.59985
head 14.112 1.37575 -1.534
rclavicle -2.72956e-014 -3.18055e-015
rhumerus -51.6903 22.8347 -95.487
rradius 106.897
rwrist -24.6519
rhand -9.3023 -50.6496
rfingers 7.12502
rthumb 16.6554 -439.955
lclavicle -2.72956e-014 -3.18055e-015
lhumerus -54.7809 -33.7675 94.8513
lradius 104.833
lwrist 22.2507
lhand -22.6144 -52.2645
lfingers 7.12502
lthumb 3.81545 -22.3189
rfemur 0 0 0
rtibia 0
rfoot 0 0
rtoes 0
lfemur 18.6354 -6.51685 -12.072
ltibia -19.5657
lfoot -2.69803 20.1219
ltoes -12.7722
867
root -1.04164 18.1546 6.0992 0.202564 -0.10353 -4.66325
lowerback 4.61878 1.01163 3.07106
upperback 1.28723 1.52042 2.03217
thorax -1.24104 0.754455 0.280044
lowerneck -8.60255 1.67196 -0.331936
upperneck 36.639 4.5699 -5.23135
head 14.0694 1.29648 -1.41114
rclavicle -2.13569e-014 -7.55382e-015
rhumerus -53.5434 21.5928 -96.0715
rradius 105.881
rwrist -21.7034
rhand -9.2922 -48.8138
rfingers 7.12502
rthumb 16.6652 -438.118
lclavicle -2.13569e-014 -7.55382e-015
lhumerus -60.2313 -32.7947 96.5269
lradius 105.455
lwrist 21.8585
lhand -23.2619 -53.2175
lfingers 7.12502
lthumb 3.19019 -23.2616
rfemur 0 0 0
rtibia 0
rfoot 0 0
rtoes 0
lfemur 18.6996 -6.54656 -12.2861
ltibia -19.4721
lfoot -3.08079 20.5775
ltoes -12.3767
868
root -1.03692 18.152 6.1271 0.341297 -0.617416 -4.73889
lowerback 4.60042 0.999494 3.27495
upperback 1.21692 1.51442 1.99212
thorax -1.29667 0.749837 0.124948
lowerneck -8.72059 1.55597 -0.431979
upperneck 36.5898 4.24309 -4.78197
head 14.0415 1.19308 -1.25557
rclavicle -7.29291e-015 -6.4605e-015
rhumerus -55.0109 19.8112 -95.9198
rradius 105.403
rwrist -21.1119
rhand -7.35456 -50.8908
rfingers 7.12502
rthumb 18.5298 -440.028
lclavicle -7.29291e-015 -6.4605e-015
lhumerus -65.4931 -31.493 98.1941
lradius 105.906
lwrist 21.7217
lhand -23.5677 -54.1579
lfingers 7.12502
lthumb 2.89481 -24.1978
rfemur 0 0 0
rtibia 0
rfoot 0 0
rtoes 0
lfemur 18.763 -6.60117 -12.2795
ltibia -19.3655
lfoot -3.56445 21.0365
ltoes -11.5752
869
root -1.03371 18.1482 6.15199 0.424943 -1.1568 -4.80595
lowerback 4.65949 1.04226 3.36294
upperback 1.14443 1.58051 1.97237
thorax -1.39981 0.780635 0.0498232
lowerneck -8.74989 1.37763 -0.483343
upperneck 36.4627 3.83573 -4.41369
head 13.9613 1.0548 -1.15272
rclavicle 9.52924e-015 5.56597e-015
rhumerus -56.6305 18.1426 -95.8069
rradius 104.527
rwrist -19.5009
rhand -7.03431 -50.2387
rfingers 7.12502
rthumb 18.8378 -439.347
lclavicle 9.52924e-015 5.56597e-015
lhumerus -70.3795 -29.866 99.7351
lradius 106.174
lwrist 21.6818
lhand -23.5876 -55.3596
lfingers 7.12502
lthumb 2.87566 -25.3992
rfemur 0 0 0
rtibia 0
rfoot 0 0
rtoes 0
lfemur 18.8537 -6.54653 -12.2759
ltibia -19.2259
lfoot -4.03538 21.4187
ltoes -10.974
870
root -1.02795 18.1467 6.16945 0.54844 -2.06468 -4.76056
lowerback 4.78625 1.26228 3.29442
upperback 1.05507 1.8786 1.92819
thorax -1.55635 0.926695 0.0215732
lowerneck -8.69166 1.16089 -0.580216
upperneck 36.2132 3.36747 -4.02002
head 13.8054 0.891109 -1.03882
rclavicle -6.11263e-015 -3.18055e-015
rhumerus -58.3534 16.5481 -95.6634
rradius 103.286
rwrist -16.9728
rhand -9.04912 -47.3674
rfingers 7.12502
rthumb 16.8992 -436.652
lclavicle -6.11263e-015 -3.18055e-015
lhumerus -74.7866 -28.0883 101.071
lradius 106.803
lwrist 21.185
lhand -24.4879 -55.7636
lfingers 7.12502
lthumb 2.0062 -25.7932
rfemur 0 0 0
rtibia 0
rfoot 0 0
rtoes 0
lfemur 18.9694 -6.25008 -12.4492
ltibia -19.1491
lfoot -4.44225 21.9674
ltoes -10.6433
